<mxfile host="app.diagrams.net" modified="2023-11-29T10:44:30.915Z" agent="Mozilla/5.0 (Windows NT 10.0; Win64; x64) AppleWebKit/537.36 (KHTML, like Gecko) Chrome/119.0.0.0 Safari/537.36" version="22.1.4" etag="wT41P7IX0ZjME02-Uml7" type="github">
  <diagram name="Page-1" id="vBqbdu6_wVexkNoyPro_">
    <mxGraphModel>
      <root>
        <mxCell id="0" />
        <mxCell id="1" parent="0" />
      </root>
    </mxGraphModel>
  </diagram>
</mxfile>
